<svg xmlns="http://www.w3.org/2000/svg" xmlns:xlink="http://www.w3.org/1999/xlink" version="1.1" id="Layer_1" x="0px" y="0px" width="50px" height="50px" viewBox="0 0 50 50" enable-background="new 0 0 50 50" xml:space="preserve">
<g id="email_x5F_2">
	<path fill="#000000" d="M46.507,13.02H4.079c-1.036,0-1.876,0.838-1.876,1.875s0.84,1.878,1.876,1.878h42.428   c1.038,0,1.877-0.842,1.877-1.878S47.545,13.02,46.507,13.02z"/>
	<path fill="#000000" d="M46.507,22.721H4.079c-1.036,0-1.876,0.839-1.876,1.875c0,1.039,0.84,1.878,1.876,1.878h42.428   c1.038,0,1.877-0.839,1.877-1.878C48.384,23.56,47.545,22.721,46.507,22.721z"/>
	<path fill="#000000" d="M46.507,31.767H4.079c-1.036,0-1.876,0.839-1.876,1.876c0,1.035,0.84,1.877,1.876,1.877h42.428   c1.038,0,1.877-0.842,1.877-1.877C48.384,32.605,47.545,31.767,46.507,31.767z"/>
</g>
</svg>