<svg xmlns="http://www.w3.org/2000/svg" xmlns:xlink="http://www.w3.org/1999/xlink" version="1.1" id="Layer_1" x="0px" y="0px" width="100px" height="100px" viewBox="0 0 100 100" enable-background="new 0 0 100 100" xml:space="preserve">
<g>
	<g>
		<path fill="#000000" d="M50,0.002C22.429,0.002,0,22.431,0,50s22.428,49.997,50,49.997S100,77.568,100,50S77.572,0.002,50,0.002z     M50,94.228C25.612,94.228,5.77,74.389,5.77,50C5.77,25.611,25.612,5.771,50,5.771c24.388,0,44.231,19.839,44.231,44.228    C94.231,74.389,74.389,94.228,50,94.228z"/>
	</g>
	<g>
		<path fill="#000000" d="M62.762,23.763c-1.127-1.126-2.953-1.126-4.08,0c-1.126,1.127-1.126,2.952,0,4.079l6.26,6.262    l-27.003-0.002c-7.02,0-12.727,5.709-12.727,12.727c0,1.592,1.29,2.885,2.884,2.885s2.885-1.293,2.885-2.885    c0-1.859,0.727-3.605,2.039-4.918c1.313-1.312,3.06-2.037,4.913-2.037h0.005h26.997l-6.254,6.256    c-1.126,1.127-1.126,2.952,0,4.079c0.564,0.563,1.302,0.845,2.04,0.845c0.737,0,1.476-0.281,2.04-0.845l11.183-11.183    c1.126-1.127,1.126-2.952,0-4.079L62.762,23.763z"/>
	</g>
	<g>
		<path fill="#000000" d="M71.904,50.287c-1.594,0-2.885,1.293-2.885,2.885c0,1.858-0.727,3.605-2.039,4.918    s-3.059,2.037-4.918,2.037l0,0H35.06l6.259-6.257c1.127-1.127,1.127-2.952,0-4.079s-2.952-1.127-4.079,0L26.057,60.975    c-1.126,1.127-1.126,2.951,0,4.078L37.24,76.236c0.563,0.562,1.302,0.845,2.04,0.845c0.738,0,1.476-0.282,2.04-0.845    c1.127-1.127,1.127-2.952,0-4.079l-6.259-6.262l27.003,0.003c7.014,0,12.727-5.71,12.727-12.727    C74.789,51.58,73.494,50.287,71.904,50.287z"/>
	</g>
</g>
</svg>